<?xml version="1.0" standalone="no"?><!DOCTYPE svg PUBLIC "-//W3C//DTD SVG 1.1//EN" "http://www.w3.org/Graphics/SVG/1.1/DTD/svg11.dtd"><svg class="icon" width="200px" height="200.00px" viewBox="0 0 1024 1024" version="1.1" xmlns="http://www.w3.org/2000/svg"><path d="M735 960.2V63.8h61.3c16.5 0 30 13.5 30 30v775.1c0 50.2-41.1 91.3-91.3 91.3z" fill="#73EADB" /><path d="M688.3 470.5H384.2c-0.8 0-1.5-0.7-1.5-1.5V181.6c0-0.8 0.7-1.5 1.5-1.5h304.1c0.8 0 1.5 0.7 1.5 1.5V469c0 0.9-0.7 1.5-1.5 1.5z" fill="#B3EF54" /><path d="M757.1 93.9v756.4c0 44.1-35.9 80-80 80H232.5V93.9h524.6m0-30H232.5c-16.6 0-30 13.4-30 30v836.4c0 16.6 13.4 30 30 30h444.6c60.8 0 110-49.2 110-110V93.9c0-16.6-13.4-30-30-30z" fill="#6D7677" /><path d="M634.9 210.1v230.5h-272V210.1h272m0-30h-272c-16.6 0-30 13.4-30 30v230.5c0 16.6 13.4 30 30 30h272c16.6 0 30-13.4 30-30V210.1c0-16.6-13.5-30-30-30zM681.5 573.5c11.9 0 21.5 9.6 21.5 21.5s-9.6 21.5-21.5 21.5S660 606.9 660 595s9.6-21.5 21.5-21.5m0-20c-22.9 0-41.5 18.6-41.5 41.5s18.6 41.5 41.5 41.5S723 617.9 723 595s-18.6-41.5-41.5-41.5zM598.5 639.9c11.9 0 21.5 9.6 21.5 21.5s-9.6 21.5-21.5 21.5-21.5-9.6-21.5-21.5 9.6-21.5 21.5-21.5m0-20c-22.9 0-41.5 18.6-41.5 41.5s18.6 41.5 41.5 41.5 41.5-18.6 41.5-41.5-18.6-41.5-41.5-41.5zM346.1 573.5V597c0 14.5 11.8 26.3 26.3 26.3h23.5v18.1h-21.5c-15.6 0-28.3 12.7-28.3 28.3v21.5H328v-21.5c0-15.6-12.7-28.3-28.3-28.3h-21.5v-18.1h23.5c14.5 0 26.3-11.8 26.3-26.3v-23.5h18.1m13.7-20h-45.5c-3.5 0-6.3 2.8-6.3 6.3V597c0 3.5-2.8 6.3-6.3 6.3h-35.2c-4.6 0-8.3 3.7-8.3 8.3V653c0 4.6 3.7 8.3 8.3 8.3h33.1c4.6 0 8.3 3.7 8.3 8.3v33.1c0 4.6 3.7 8.3 8.3 8.3h41.4c4.6 0 8.3-3.7 8.3-8.3v-33.1c0-4.6 3.7-8.3 8.3-8.3h33.1c4.6 0 8.3-3.7 8.3-8.3v-41.4c0-4.6-3.7-8.3-8.3-8.3h-35.2c-3.5 0-6.3-2.8-6.3-6.3v-37.2c0.3-3.4-2.5-6.3-6-6.3zM411.3 894.7c-4.5 0-9-2-11.9-5.9-5-6.6-3.8-16 2.8-21l56.7-43.4c6.6-5 16-3.8 21 2.8s3.8 16-2.8 21l-56.7 43.4c-2.7 2.1-5.9 3.1-9.1 3.1zM502.6 891.7c-4.5 0-9-2-11.9-5.9-5-6.6-3.8-16 2.8-21l56.7-43.4c6.6-5 16-3.8 21 2.8s3.8 16-2.8 21l-56.7 43.4c-2.7 2.1-5.9 3.1-9.1 3.1z" fill="#6D7677" /><path d="M283.1 238.2m-20.7 0a20.7 20.7 0 1 0 41.4 0 20.7 20.7 0 1 0-41.4 0Z" fill="#FF5252" /></svg>