<svg xmlns="http://www.w3.org/2000/svg" xmlns:xlink="http://www.w3.org/1999/xlink" id="processonSvg1000" viewBox="235.71597633136093 44.75155279503106 249.05325443786984 641.7867494824017" width="249.05325443786984" height="641.7867494824017"><defs id="ProcessOnDefs1001"><marker id="ProcessOnMarker1021" markerUnits="userSpaceOnUse" orient="auto" markerWidth="16.23606797749979" markerHeight="10.550836550532098" viewBox="-1.0 -1.3763819204711736 16.23606797749979 10.550836550532098" refX="-1.0" refY="3.8990363547948754"><path id="ProcessOnPath1022" d="M12.0 3.8990363547948754L0.0 7.798072709589751V0.0Z" stroke="#323232" stroke-width="2.0" fill="#323232" transform="matrix(1.0,0.0,0.0,1.0,0.0,0.0)"/></marker><marker id="ProcessOnMarker1025" markerUnits="userSpaceOnUse" orient="auto" markerWidth="16.23606797749979" markerHeight="10.550836550532098" viewBox="-1.0 -1.3763819204711736 16.23606797749979 10.550836550532098" refX="-1.0" refY="3.8990363547948754"><path id="ProcessOnPath1026" d="M12.0 3.8990363547948754L0.0 7.798072709589751V0.0Z" stroke="#323232" stroke-width="2.0" fill="#323232" transform="matrix(1.0,0.0,0.0,1.0,0.0,0.0)"/></marker><marker id="ProcessOnMarker1029" markerUnits="userSpaceOnUse" orient="auto" markerWidth="16.23606797749979" markerHeight="10.550836550532098" viewBox="-1.0 -1.3763819204711736 16.23606797749979 10.550836550532098" refX="-1.0" refY="3.8990363547948754"><path id="ProcessOnPath1030" d="M12.0 3.8990363547948754L0.0 7.798072709589751V0.0Z" stroke="#323232" stroke-width="2.0" fill="#323232" transform="matrix(1.0,0.0,0.0,1.0,0.0,0.0)"/></marker><marker id="ProcessOnMarker1033" markerUnits="userSpaceOnUse" orient="auto" markerWidth="16.23606797749979" markerHeight="10.550836550532098" viewBox="-1.0 -1.3763819204711736 16.23606797749979 10.550836550532098" refX="-1.0" refY="3.8990363547948754"><path id="ProcessOnPath1034" d="M12.0 3.8990363547948754L0.0 7.798072709589751V0.0Z" stroke="#323232" stroke-width="2.0" fill="#323232" transform="matrix(1.0,0.0,0.0,1.0,0.0,0.0)"/></marker><marker id="ProcessOnMarker1043" markerUnits="userSpaceOnUse" orient="auto" markerWidth="16.23606797749979" markerHeight="10.550836550532098" viewBox="-1.0 -1.3763819204711736 16.23606797749979 10.550836550532098" refX="-1.0" refY="3.8990363547948754"><path id="ProcessOnPath1044" d="M12.0 3.8990363547948754L0.0 7.798072709589751V0.0Z" stroke="#323232" stroke-width="2.0" fill="#323232" transform="matrix(1.0,0.0,0.0,1.0,0.0,0.0)"/></marker><marker id="ProcessOnMarker1047" markerUnits="userSpaceOnUse" orient="auto" markerWidth="16.23606797749979" markerHeight="10.550836550532098" viewBox="-1.0 -1.3763819204711736 16.23606797749979 10.550836550532098" refX="-1.0" refY="3.8990363547948754"><path id="ProcessOnPath1048" d="M12.0 3.8990363547948754L0.0 7.798072709589751V0.0Z" stroke="#323232" stroke-width="2.0" fill="#323232" transform="matrix(1.0,0.0,0.0,1.0,0.0,0.0)"/></marker><marker id="ProcessOnMarker1055" markerUnits="userSpaceOnUse" orient="auto" markerWidth="16.23606797749979" markerHeight="10.550836550532098" viewBox="-1.0 -1.3763819204711736 16.23606797749979 10.550836550532098" refX="-1.0" refY="3.8990363547948754"><path id="ProcessOnPath1056" d="M12.0 3.8990363547948754L0.0 7.798072709589751V0.0Z" stroke="#323232" stroke-width="2.0" fill="#323232" transform="matrix(1.0,0.0,0.0,1.0,0.0,0.0)"/></marker></defs><g id="ProcessOnG1002"><path id="ProcessOnPath1003" d="M235.71597633136093 44.75155279503106H484.7692307692308V686.5383022774328H235.71597633136093V44.7515527950311Z" fill="none"/><g id="ProcessOnG1004"><g id="ProcessOnG1005" transform="matrix(1.0,0.0,0.0,1.0,285.71597633136093,94.75155279503106)" opacity="1.0"><path id="ProcessOnPath1006" d="M0.0 0.0L139.05325443786984 0.0L139.05325443786984 69.42028985507247L0.0 69.42028985507247Z" stroke="#323232" stroke-width="2.0" stroke-dasharray="none" opacity="1.0" fill="#ffffff"/><g id="ProcessOnG1007" transform="matrix(1.0,0.0,0.0,1.0,10.0,18.460144927536234)"><text id="ProcessOnText1008" fill="#000000" font-size="13" x="58.52662721893492" y="13.325" font-family="微软雅黑" font-weight="normal" font-style="normal" text-decoration="none" family="微软雅黑" text-anchor="middle" size="13">ai_move</text><text id="ProcessOnText1009" fill="#000000" font-size="13" x="58.52662721893492" y="29.575" font-family="微软雅黑" font-weight="normal" font-style="normal" text-decoration="none" family="微软雅黑" text-anchor="middle" size="13">（预测AI走法）</text></g></g><g id="ProcessOnG1010" transform="matrix(1.0,0.0,0.0,1.0,285.71597633136093,210.7826086956522)" opacity="1.0"><path id="ProcessOnPath1011" d="M0.0 0.0L139.05325443786984 0.0L139.05325443786984 69.42028985507247L0.0 69.42028985507247Z" stroke="#323232" stroke-width="2.0" stroke-dasharray="none" opacity="1.0" fill="#ffffff"/><g id="ProcessOnG1012" transform="matrix(1.0,0.0,0.0,1.0,10.0,18.460144927536234)"><text id="ProcessOnText1013" fill="#000000" font-size="13" x="58.52662721893492" y="13.325" font-family="微软雅黑" font-weight="normal" font-style="normal" text-decoration="none" family="微软雅黑" text-anchor="middle" size="13">player_move</text><text id="ProcessOnText1014" fill="#000000" font-size="13" x="58.52662721893492" y="29.575" font-family="微软雅黑" font-weight="normal" font-style="normal" text-decoration="none" family="微软雅黑" text-anchor="middle" size="13">（预测人类走法）</text></g></g><g id="ProcessOnG1015" transform="matrix(1.0,0.0,0.0,1.0,292.6686390532544,319.871635610766)" opacity="1.0"><path id="ProcessOnPath1016" d="M0.0 34.710144927536234L62.57396449704142 0.0L125.14792899408285 34.710144927536234L62.57396449704142 69.42028985507247L0.0 34.710144927536234Z" stroke="#323232" stroke-width="2.0" stroke-dasharray="none" opacity="1.0" fill="#ffffff"/><g id="ProcessOnG1017" transform="matrix(1.0,0.0,0.0,1.0,10.0,26.585144927536234)"><text id="ProcessOnText1018" fill="#000000" font-size="13" x="51.57396449704142" y="13.325" font-family="微软雅黑" font-weight="normal" font-style="normal" text-decoration="none" family="微软雅黑" text-anchor="middle" size="13">游戏结束</text></g></g><g id="ProcessOnG1019"><path id="ProcessOnPath1020" d="M355.2426035502958 280.2028985507246L355.2426035502958 300.0372670807453L355.2426035502958 300.0372670807453L355.2426035502958 304.63556763326625" stroke="#323232" stroke-width="2.0" stroke-dasharray="none" fill="none" marker-end="url(#ProcessOnMarker1021)"/></g><g id="ProcessOnG1023"><path id="ProcessOnPath1024" d="M417.8165680473373 354.58178053830227L445.7692307692308 354.58178053830227L445.7692307692308 64.75155279503106L355.2426035502958 64.75155279503106L355.2426035502958 79.51548481753127" stroke="#323232" stroke-width="2.0" stroke-dasharray="none" fill="none" marker-end="url(#ProcessOnMarker1025)"/></g><g id="ProcessOnG1027"><path id="ProcessOnPath1028" d="M355.2426035502958 164.17184265010354L355.2426035502958 187.47722567287786L355.2426035502958 187.47722567287786L355.2426035502958 195.5465407181524" stroke="#323232" stroke-width="2.0" stroke-dasharray="none" fill="none" marker-end="url(#ProcessOnMarker1029)"/></g><g id="ProcessOnG1031"><path id="ProcessOnPath1032" d="M355.2426035502958 389.2919254658385L355.2426035502958 417.0600414078675L355.2426035502958 417.0600414078675L355.2426035502958 429.59208937239674" stroke="#323232" stroke-width="2.0" stroke-dasharray="none" fill="none" marker-end="url(#ProcessOnMarker1033)"/></g><g id="ProcessOnG1035" transform="matrix(1.0,0.0,0.0,1.0,285.71597633136093,444.8281573498965)" opacity="1.0"><path id="ProcessOnPath1036" d="M0.0 0.0L139.05325443786984 0.0L139.05325443786984 69.42028985507247L0.0 69.42028985507247Z" stroke="#323232" stroke-width="2.0" stroke-dasharray="none" opacity="1.0" fill="#ffffff"/><g id="ProcessOnG1037" transform="matrix(1.0,0.0,0.0,1.0,10.0,10.335144927536234)"><text id="ProcessOnText1038" fill="#000000" font-size="13" x="58.52662721893492" y="13.325" font-family="微软雅黑" font-weight="normal" font-style="normal" text-decoration="none" family="微软雅黑" text-anchor="middle" size="13">evaluate</text><text id="ProcessOnText1039" fill="#000000" font-size="13" x="58.52662721893492" y="29.575" font-family="微软雅黑" font-weight="normal" font-style="normal" text-decoration="none" family="微软雅黑" text-anchor="middle" size="13">(给棋盘打分，更新</text><text id="ProcessOnText1040" fill="#000000" font-size="13" x="58.52662721893492" y="45.825" font-family="微软雅黑" font-weight="normal" font-style="normal" text-decoration="none" family="微软雅黑" text-anchor="middle" size="13">得分)</text></g></g><g id="ProcessOnG1041"><path id="ProcessOnPath1042" d="M355.2426035502958 514.248447204969L355.2426035502958 544.248447204969L255.71597633136093 544.248447204969L255.71597633136093 245.49275362318843L270.47990835386116 245.49275362318843" stroke="#323232" stroke-width="2.0" stroke-dasharray="none" fill="none" marker-end="url(#ProcessOnMarker1043)"/></g><g id="ProcessOnG1045"><path id="ProcessOnPath1046" d="M355.2426035502958 514.248447204969L355.2426035502958 544.248447204969L255.71597633136093 544.248447204969L255.71597633136093 129.4616977225673L270.47990835386116 129.4616977225673" stroke="#323232" stroke-width="2.0" stroke-dasharray="none" fill="none" marker-end="url(#ProcessOnMarker1047)"/></g><g id="ProcessOnG1049" transform="matrix(1.0,0.0,0.0,1.0,283.6005917159763,596.5383022774328)" opacity="1.0"><path id="ProcessOnPath1050" d="M0.0 0.0L143.28402366863907 0.0L143.28402366863907 70.0L0.0 70.0Z" stroke="#323232" stroke-width="2.0" stroke-dasharray="none" opacity="1.0" fill="#ffffff"/><g id="ProcessOnG1051" transform="matrix(1.0,0.0,0.0,1.0,10.0,26.875)"><text id="ProcessOnText1052" fill="#000000" font-size="13" x="60.64201183431953" y="13.325" font-family="微软雅黑" font-weight="normal" font-style="normal" text-decoration="none" family="微软雅黑" text-anchor="middle" size="13">输出得分最大走法</text></g></g><g id="ProcessOnG1053"><path id="ProcessOnPath1054" d="M424.7692307692308 129.4616977225673L464.7692307692308 129.4616977225673L464.7692307692308 566.5383022774328L355.2426035502958 566.5383022774328L355.2426035502958 581.3022342999329" stroke="#323232" stroke-width="2.0" stroke-dasharray="none" fill="none" marker-end="url(#ProcessOnMarker1055)"/></g></g></g></svg>